<svg version="1.2" baseProfile="tiny" id="Layer_3" xmlns="http://www.w3.org/2000/svg" xmlns:xlink="http://www.w3.org/1999/xlink" x="0px" y="0px" width="177.375px" height="42px" viewBox="0 0 177.375 42" xml:space="preserve"><polygon fill="#FBB03B" points="8.911,28.58 7.618,27.055 6.325,28.58 7.618,30.043"/><polygon fill="#FBB03B" points="6.134,28.58 4.841,27.055 3.524,28.58 4.841,30.043"/><polygon fill="#FBB03B" points="12.989,39.536 14.298,41 15.599,39.536 14.298,38.038"/><polygon fill="#FBB03B" points="10.204,39.536 11.521,41 12.798,39.536 11.521,38.038"/><polygon fill="#FBB03B" points="19.558,28.58 18.264,27.055 16.955,28.58 18.264,30.043"/><polygon fill="#FBB03B" points="31.679,39.536 32.988,41 34.29,39.536 32.988,38.038"/><polygon fill="#FBB03B" points="28.895,39.536 30.212,41 31.489,39.536 30.212,38.038"/><path fill="#FBB03B" d="M36.535,34.953h-1.047h-0.65h-1.999v-3.809l-1.5,1.499v2.31h-2.007h-0.643h-0.96 c-0.544-2.527-1.235-3.791-2.07-3.791c-0.81,0-1.716,1.264-2.721,3.791h-0.881h-0.643h-1.396v-3.809l-1.507,1.499v2.31h-1.714H16.17 h-2.023v-3.809l-1.5,1.499v2.31h-2.023H9.998H8.839v-3.641c0-0.341-0.153-0.512-0.46-0.512c-0.375,0-0.799,0.144-1.27,0.428 c-0.471,0.285-0.986,0.716-1.547,1.291c-0.471,0.465-0.886,0.929-1.246,1.394c-0.359,0.464-0.674,0.928-0.944,1.393 c-0.053,0.1-0.08,0.2-0.08,0.3c0,0.146,0.072,0.253,0.214,0.317l2.507,1.181l1.357-1.437v1.189h2.625h0.627h5.545h0.626h4.617h0.627 h0.016c0.325-0.001,0.588-0.01,0.786-0.03c0.201-0.021,0.338-0.046,0.413-0.075c0.069-0.047,0.139-0.112,0.21-0.198 c0.072-0.086,0.136-0.195,0.194-0.331c0.767,0.488,1.389,0.857,1.865,1.106c0.476,0.25,0.819,0.375,1.031,0.375 c0.143,0,0.28-0.072,0.413-0.216c0.132-0.144,0.267-0.354,0.404-0.631h1.317h0.643h5.506h0.65h2.531v-9.334l-1.483,1.507V34.953z  M7.372,34.953c-0.143,0.111-0.283,0.167-0.421,0.167l-0.15-0.021L6.65,35.032l-1.468-0.696c0.973-1.17,1.632-1.754,1.976-1.754 l0.167,0.074c0.032,0.051,0.048,0.122,0.048,0.216V34.953z M25.301,35.072c-0.339-0.215-0.651-0.439-0.937-0.675 c0.397-0.846,0.746-1.27,1.047-1.27c0.45,0,0.777,0.847,0.984,2.539C26.004,35.484,25.64,35.286,25.301,35.072z"/><polygon fill="#FBB03B" points="39.961,29.029 39.961,36.856 41.46,36.856 41.46,27.522"/><polygon fill="#E6E7E8" points="56.867,28.58 55.574,27.055 54.281,28.58 55.574,30.043"/><polygon fill="#E6E7E8" points="54.09,28.58 52.797,27.055 51.48,28.58 52.797,30.043"/><path fill="#E6E7E8" d="M64.427,31.162c-0.201-0.317-0.413-0.555-0.635-0.714c-0.222-0.158-0.463-0.237-0.722-0.237 c-0.534,0-1.047,0.358-1.539,1.075c-0.402,0.593-0.669,1.236-0.801,1.931l-0.016,0.316c0,0.136,0.028,0.265,0.083,0.389 c0.055,0.123,0.141,0.231,0.258,0.326c0.122,0.111,0.462,0.346,1.023,0.705h-3.498h-0.611h-1.173v-3.641 c0-0.341-0.153-0.512-0.46-0.512c-0.375,0-0.798,0.144-1.269,0.428c-0.471,0.285-0.986,0.716-1.547,1.291 c-0.471,0.465-0.886,0.929-1.245,1.394c-0.36,0.464-0.674,0.928-0.944,1.393c-0.053,0.1-0.079,0.2-0.079,0.3 c0,0.146,0.071,0.253,0.214,0.317l2.507,1.181l1.356-1.437v1.189h2.641h0.611h5.847c0.619,0,0.928-0.481,0.928-1.445 c0-0.923-0.076-1.739-0.226-2.45C64.979,32.249,64.745,31.65,64.427,31.162z M55.328,34.953c-0.143,0.111-0.283,0.167-0.42,0.167 l-0.151-0.021l-0.151-0.066l-1.467-0.696c0.973-1.17,1.631-1.754,1.975-1.754l0.167,0.074c0.032,0.051,0.048,0.122,0.048,0.216 V34.953z M62.999,34.036c-0.286-0.158-0.517-0.306-0.694-0.44c-0.177-0.135-0.308-0.262-0.393-0.379 c-0.09-0.1-0.135-0.206-0.135-0.317c0-0.218,0.114-0.408,0.341-0.573c0.105-0.082,0.208-0.146,0.305-0.189 c0.098-0.044,0.2-0.066,0.306-0.066c0.238,0,0.461,0.203,0.67,0.608c0.208,0.405,0.398,1.028,0.567,1.868 C63.84,34.529,63.518,34.359,62.999,34.036z"/><polygon fill="#E6E7E8" points="62.388,28.412 61.095,26.914 59.778,28.412 61.095,29.876"/><path fill="#E6E7E8" d="M91.543,34.953h-1.031h-0.667h-0.571v-0.15c0-1.034-0.195-1.866-0.587-2.494 c-0.444-0.723-1.105-1.084-1.983-1.084c-0.381,0-0.793,0.088-1.237,0.264c-0.444,0.177-0.92,0.441-1.428,0.794 c-0.481,0.353-0.919,0.725-1.313,1.115c-0.395,0.39-0.75,0.809-1.067,1.256v-3.491l-1.483,1.525v2.266h-1.492h-0.587h-0.707 c-0.169,0-0.329-0.053-0.48-0.159c-0.151-0.105-0.282-0.265-0.393-0.476l-0.667-1.375c-0.656-1.369-1.394-2.054-2.213-2.054 c-0.434,0-0.878,0.218-1.333,0.652c-0.407,0.388-0.711,0.811-0.912,1.269c-0.206,0.43-0.296,0.67-0.27,0.723 c0.074,0.1,0.195,0.071,0.365-0.088c0.619-0.582,1.153-0.849,1.603-0.802c0.18,0.012,0.346,0.063,0.5,0.154 c0.153,0.091,0.291,0.216,0.412,0.374c0.074,0.077,0.142,0.166,0.203,0.27c0.061,0.103,0.12,0.219,0.178,0.348l0.516,1.164h-4.205 h-0.65h-1.595v-5.924l-1.507-1.507v9.334h3.102h0.65h7.402h0.587h11.162h0.667h2.515v-9.334l-1.483,1.507V34.953z M87.219,34.953 h-4.704c0.613-0.694,1.188-1.214,1.726-1.561c0.536-0.347,1.045-0.521,1.527-0.521c0.455,0,0.817,0.165,1.087,0.494 c0.27,0.317,0.405,0.731,0.405,1.243L87.219,34.953z"/><polygon fill="#E6E7E8" points="94.969,36.856 96.468,36.856 96.468,27.522 94.969,29.029"/><polygon fill="#E6E7E8" points="117.404,39.536 118.713,41 120.015,39.536 118.713,38.038"/><polygon fill="#E6E7E8" points="114.619,39.536 115.937,41 117.214,39.536 115.937,38.038"/><path fill="#E6E7E8" d="M122.26,34.953h-1.048h-0.65h-1.999v-3.809l-1.499,1.499v2.31h-2.008h-0.643h-1.285l-0.039-7.431 l-1.484,1.507v7.229c-0.016,0.816-0.282,1.445-0.801,1.886c-0.228,0.188-0.472,0.333-0.733,0.437s-0.544,0.154-0.846,0.154 c-0.671,0-1.234-0.268-1.689-0.802c-0.444-0.547-0.666-1.196-0.666-1.948c0-0.459,0.075-0.924,0.227-1.397 c0.15-0.474,0.384-0.959,0.701-1.459c0.132-0.223,0.164-0.354,0.096-0.396l-0.096-0.026c-0.164,0-0.423,0.276-0.777,0.828 c-0.381,0.541-0.664,1.094-0.849,1.657c-0.186,0.564-0.278,1.141-0.278,1.729c0,1.104,0.317,2.001,0.952,2.688 c0.641,0.688,1.465,1.031,2.476,1.031c2.084,0,3.316-1.261,3.696-3.782h1.396h0.643h5.506h0.65h2.531v-9.334l-1.483,1.507V34.953z" /><path fill="#E6E7E8" d="M130.239,33.11c-0.328-1.305-1.079-2.206-2.253-2.706l-0.698,1.754c0.27,0.147,0.512,0.312,0.727,0.494 c0.214,0.183,0.402,0.385,0.566,0.608c0.201,0.275,0.348,0.553,0.441,0.828c0.091,0.276,0.127,0.564,0.106,0.864h-2.722 c-0.121-0.024-0.225-0.055-0.31-0.093c-0.084-0.038-0.145-0.078-0.182-0.119c-0.043-0.064-0.075-0.146-0.099-0.242 c-0.024-0.097-0.036-0.216-0.036-0.357c0-0.152-0.037-0.229-0.111-0.229c-0.059,0-0.098,0.063-0.119,0.193l-0.23,2.01l-0.031,0.229 c0,0.341,0.24,0.511,0.722,0.511h4.451C130.462,34.959,130.388,33.71,130.239,33.11z"/><rect x="7.53" y="1" fill="#F2F2F2" width="3.894" height="3.115"/><rect x="36.093" y="19.877" fill="#F2F2F2" width="3.895" height="3.168"/><path fill="#E6E7E8" d="M41.624,6.053v8.745h-8.048h-0.163V6.053h-4.811c-3.665,0-6.152,1.938-6.152,4.739v4.006h-4.644h-0.196 V6.053h-3.927v12.751c0,0.288-0.065,0.498-0.163,0.655c-0.294,0.288-0.786,0.418-1.506,0.418H6.745c-1.21,0-1.538-0.183-1.702-1.073 v-8.536H1.148v8.143c0,2.984,2.127,4.634,5.957,4.634h4.549c3.829,0,5.956-1.649,5.956-4.634v-0.498h0.196h4.644v2.461h4.68 c2.487,0,4.352-0.812,5.53-2.461h0.75h0.166h11.942V6.053H41.624z M29.453,15.321c0,1.283-0.688,1.911-2.127,1.911h-0.981V11.08 c0-1.283,0.687-1.912,2.127-1.912h0.982V15.321z"/><rect x="41.624" y="19.877" fill="#F2F2F2" width="3.894" height="3.168"/><rect x="61.273" y="1" fill="#FBB03B" width="3.894" height="3.115"/><rect x="55.71" y="1" fill="#FBB03B" width="3.959" height="3.115"/><path fill="#FBB03B" d="M76.978,6.053c-1.668,0-2.945,0.209-3.796,0.576c-2.095,0.943-3.174,2.461-3.174,4.477 c0,1.205,0.458,2.251,1.341,3.168c0.262,0.183,0.458,0.366,0.589,0.523h-6.542h-0.229V6.053 c-7.657,0.393-13.024,4.582-13.843,11.861h3.993c1.014-4.294,3.142-7.279,5.956-8.038v8.038h3.892h0.232h16.229V6.053H76.978z  M77.731,14.405c-2.52-0.707-3.796-1.807-3.796-3.352c0-1.257,0.949-1.885,2.814-1.885h0.982V14.405z"/><rect x="74.065" y="1" fill="#FBB03B" width="3.895" height="3.115"/><path fill="#FBB03B" d="M129.282,6.053h-10.472v8.745h-2.193v-5.08h-3.96v5.08h-4.513h-0.196v-4.006c0-2.801-2.52-4.739-6.152-4.739 h-5.662v3.116h5.793c1.375,0,2.062,0.628,2.062,1.912v3.718H91.587h-0.263V1h-3.894v16.914h3.894h0.263h16.358h0.199h27.289v-7.122 C135.434,7.99,132.947,6.053,129.282,6.053z M131.539,14.798h-8.836V9.168h6.709c1.44,0,2.127,0.628,2.127,1.912V14.798z"/><path fill="#E6E7E8" d="M143.77,30.567c1.364-0.677,2.555-0.687,3.808-0.034c0.552,0.279,1.343,0.366,2.009,0.33 c2.783-0.133,5.564-0.375,8.349-0.515c0.924-0.05,0.929,0.029,0.827,0.859c-3.254,0.237-6.502,0.472-9.812,0.71 c0.205,0.924,0.335,1.516,0.434,1.964c2.85-0.146,5.62-0.313,8.393-0.402c0.381-0.017,0.778,0.295,1.165,0.452 c-0.398,0.19-0.787,0.509-1.204,0.545c-2.383,0.199-4.776,0.297-7.156,0.505c-0.601,0.055-1.256,0.292-1.741,0.61 c-1.095,0.712-2.097,1.528-3.137,2.305c-0.111-0.076-0.223-0.152-0.336-0.225c0.077,0.369,0.271,0.729,0.373,1.193 c5.506-0.783,11.085,0.004,16.322,0.976c0-7.837,0-15.54,0-23.321c-6.986,0.174-14.027,0.609-20.93,1.56 C142.069,22.326,142.847,26.377,143.77,30.567z M158.881,28.107c-4.302,0.348-8.604,0.694-12.902,1.04 c-0.126-0.106-0.246-0.213-0.368-0.32c0.296-0.219,0.576-0.607,0.902-0.641c3.812-0.357,7.634-0.672,11.455-0.944 c0.354-0.026,0.746,0.349,1.118,0.535C159.014,27.886,158.951,27.998,158.881,28.107z M145.888,20.811 c3.563-0.294,7.128-0.605,10.7-0.854c0.413-0.03,0.854,0.31,1.288,0.479c-0.06,0.122-0.119,0.241-0.176,0.363 c-3.212,0.299-6.42,0.596-9.624,0.902c-0.496,0.049-0.998,0.221-1.474,0.176c-0.355-0.03-0.678-0.322-1.021-0.5 C145.684,21.188,145.785,21,145.888,20.811z M145.878,25.074c4.06-0.352,8.127-0.68,12.199-0.956 c0.327-0.021,0.688,0.341,1.034,0.523c-0.108,0.102-0.22,0.202-0.326,0.303c-4.259,0.375-8.514,0.763-12.771,1.105 c-0.271,0.024-0.576-0.265-0.865-0.407C145.392,25.443,145.612,25.098,145.878,25.074z"/><path fill="#E6E7E8" d="M165.843,33.143c-0.593-0.335-0.571-0.759,0.215-1.132c2.214-1.05,4.443-2.09,6.468-3.044 c-1.933-2.063-3.754-0.521-5.628,0.673c-0.082,0.053-0.162,0.144-0.249,0.144c-0.412,0-0.827-0.024-1.248-0.04 c-0.013-0.157-0.03-0.305-0.047-0.463c1.075-0.612,2.068-1.41,3.244-1.791c1.7-0.565,1.497-1.49,1.16-2.782 c-1.1,0.516-2.084,0.923-2.993,1.429c-0.755,0.417-1.166,0.367-1.359-0.576c1.153-0.531,2.337-1.075,3.522-1.619 c0.563-0.256,1.293-0.393,1.651-0.791c1.098-1.211,2.405-1.737,4.231-1.265c0.703-3.656,1.381-7.198,2.085-10.856 c-4.903,0.891-9.138,2.563-13.005,4.924c-0.388,0.238-0.674,0.839-0.674,1.275c-0.045,7.09-0.029,14.18-0.027,21.269 c0,0.204,0.035,0.403,0.035,0.419c2.935-1.335,5.786-2.632,8.626-3.935c0.197-0.092,0.47-0.249,0.498-0.407 c0.283-1.339,0.522-2.69,0.804-4.206c-0.753,0.113-1.332,0.087-1.794,0.286C169.533,31.429,167.753,32.278,165.843,33.143z  M165.441,18.4c2.245-1.5,4.804-2.346,7.63-2.587c0.297-0.027,0.622,0.229,0.937,0.355c-0.27,0.218-0.494,0.538-0.811,0.64 c-2.161,0.711-4.335,1.396-6.521,2.043c-0.368,0.109-0.826-0.02-1.243-0.037C165.438,18.673,165.438,18.535,165.441,18.4z  M172.117,20.014c0.408-0.038,0.858,0.259,1.291,0.402c-0.352,0.197-0.677,0.445-1.06,0.583c-1.855,0.67-3.762,1.252-5.573,2.003 c-0.779,0.322-1.156,0.387-1.37-0.425C167.365,21.167,169.57,20.235,172.117,20.014z"/><path fill="#FBB03B" d="M147.541,8.284c0,1.29,0.028,2.488-0.016,3.687c-0.021,0.442-0.147,1.246-0.319,1.264 c-0.581,0.074-1.264-0.042-1.799-0.269c-0.765-0.325-1.434-0.813-2.142-1.23c-0.13,0.088-0.26,0.176-0.386,0.267 c0.571,1.118,1.149,2.233,1.709,3.355c0.382,0.766,0.938,1.027,1.977,0.937c3.372-0.287,6.761-0.471,10.145-0.661 c4.478-0.249,4.478-0.236,5.07-4.199c0.249-1.644,0.008-3.224-0.728-4.814C156.801,8.917,152.29,8.526,147.541,8.284z"/><path fill="#FBB03B" d="M146.335,12.071c0-1.206,0.07-2.376-0.016-3.538c-0.086-1.103,0.362-1.417,1.634-1.32 c2.087,0.156,4.188,0.248,6.271,0.161c2.22-0.091,4.427-0.417,6.199-1.771c-2.802-3.688-7.915-5.102-12.221-3.504 c-4.402,1.63-6.279,5.919-5.414,8.397C143.997,11.035,145.047,11.497,146.335,12.071z"/><path fill="#FBB03B" d="M141.06,23.678c-1.857,2.467-2.274,5.168-2.542,7.935c-0.144,1.458,0.539,2.385,1.831,3.111 c0.651,0.375,1.356,0.673,1.806,0.894c0.193-1.436,0.689-2.869,0.513-4.234C142.338,28.792,141.617,26.242,141.06,23.678z"/><path fill="#FBB03B" d="M173.397,22.86c-1.314,0.032-2.415,1.174-2.424,2.521c-0.01,1.407,1.153,2.575,2.538,2.551 c1.324-0.034,2.412-1.16,2.421-2.514C175.942,24.019,174.761,22.83,173.397,22.86z"/><path fill="#FBB03B" d="M148.173,33.77c0.015-1.476-1.04-2.57-2.461-2.562c-1.355,0.014-2.389,1.08-2.404,2.485 c-0.017,1.461,1.053,2.575,2.462,2.558C147.133,36.232,148.157,35.168,148.173,33.77z"/></svg>