<svg xmlns="http://www.w3.org/2000/svg" xmlns:xlink="http://www.w3.org/1999/xlink" version="1.2" baseProfile="tiny" id="Layer_1" x="0px" y="0px" width="220.101px" height="43px" viewBox="0 0 220.101 43" xml:space="preserve"><path fill-rule="evenodd" fill="#F5F6F7" d="M220.101,4.102c-1.192,1.723-2.384,3.455-3.571,5.182  c-0.115,0.174-0.236,0.361-0.342,0.538c-1.18,1.81-2.317,3.659-3.557,5.429c-1.243,1.758-2.407,3.572-3.638,5.339  c-0.396,0.569-0.403,0.821,0.311,0.956c1.799,0.363,3.557,0.852,5.275,1.498c1.664,0.633,3.162,1.578,4.478,2.809  c0.915,0.859,0.701,2.461-0.239,3.385c-1.826,1.764-4.095,2.508-6.367,3.252c-3.84,1.23-7.824,1.449-11.764,1.912  c-0.746,0.088-1.236,0.369-1.67,1.031c-1.537,2.402-3.164,4.746-4.732,7.113c-0.232,0.342-0.326,0.402-0.629,0.012  c-1.195-1.549-2.197-3.266-3.295-4.906c-0.615-0.908-1.261-1.82-1.852-2.746c-0.256-0.369-0.609-0.447-1.006-0.482  c-3.691-0.242-7.357-0.688-10.964-1.627c-2.296-0.609-4.548-1.318-6.614-2.549c-0.879-0.527-1.556-1.313-2.091-2.197  c-0.325-0.527-0.282-1.186,0.069-1.758c1.009-1.602,2.5-2.504,4.131-3.145c2.154-0.854,4.42-1.355,6.679-1.863  c0.524-0.121,0.619-0.275,0.289-0.766c-1.694-2.476-3.354-4.96-5.034-7.441c-0.701-1.02-1.328-2.088-2.014-3.121  C170.673,8,169.25,6.133,168.14,4.037c0.209-0.26,0.486-0.168,0.721-0.168c2.108-0.021,4.209-0.021,6.312-0.055  c0.729-0.012,1.215,0.275,1.628,0.938c1.139,1.841,2.298,3.681,3.511,5.466c1.436,2.088,2.798,4.205,4.203,6.31  c1.451,2.194,2.894,4.401,4.351,6.599c1.385,2.109,2.82,4.176,4.165,6.328c0.224,0.352,0.495,0.66,0.759,0.98  c0.3,0.383,0.375-0.018,0.482-0.182c0.487-0.738,1.02-1.457,1.494-2.205c1.029-1.629,2.154-3.193,3.208-4.811  c1.559-2.44,3.208-4.822,4.797-7.24c1.345-2.021,2.696-4.021,4.054-6.021c1.261-1.873,2.554-3.734,3.781-5.633  c0.161-0.256,0.338-0.475,0.665-0.475c2.568,0,5.161,0,7.739,0C220.03,3.951,220.067,4.023,220.101,4.102z M185.526,30.555  c-0.362-0.967-1.023-1.486-1.426-2.197c-0.966-1.746-2.223-3.258-3.232-4.979c-0.236-0.412-0.541-0.971-1.189-0.738  c-1.229,0.41-2.459,0.871-3.557,1.605c-1.503,1.012-1.503,2.406-0.008,3.451c0.051,0.045,0.139,0.055,0.194,0.105  c1.613,1.09,3.4,1.652,5.234,2.078C182.822,30.164,184.104,30.463,185.526,30.555z M202.44,30.41  c0.619,0.139,1.104-0.115,1.575-0.232c2.12-0.547,4.348-0.766,6.302-1.908c0.785-0.459,1.576-0.986,1.664-2.066  c0.076-0.967-0.527-1.563-1.23-1.977c-0.791-0.465-1.647-0.795-2.471-1.197c-0.561-0.268-0.871-0.111-1.266,0.43  c-1.098,1.559-2.037,3.242-3.207,4.758C203.298,28.863,202.92,29.631,202.44,30.41z"/><g><radialGradient id="SVGID_1_" cx="193.7959" cy="10.0376" r="6.0159" gradientUnits="userSpaceOnUse"><stop offset="0.0887" style="stop-color:#FBB040"/><stop offset="0.1005" style="stop-color:#FBB040"/><stop offset="0.4233" style="stop-color:#FBB040"/><stop offset="0.4317" style="stop-color:#FBAF3F"/><stop offset="0.9227" style="stop-color:#F7941E"/></radialGradient><path fill-rule="evenodd" fill="url(#SVGID_1_)" d="M185.983,10.084c-0.296,0.292-0.265,0.478,0,0.768   c0.524,0.566,1.129,1.041,1.581,1.684c0.231,0.349,0.487,0.285,0.819-0.007c1.059-0.931,2.231-1.671,3.683-1.929   c2.642-0.471,4.982,0.246,7.051,2.029c0.237,0.206,0.422,0.381,0.718,0.079c0.646-0.677,1.318-1.333,1.983-1.979   c-0.86-0.787-1.741-1.449-2.695-2.026C195.065,6.254,189.124,6.874,185.983,10.084z"/><radialGradient id="SVGID_2_" cx="193.7949" cy="3.8979" r="8.634" gradientUnits="userSpaceOnUse"><stop offset="0.0887" style="stop-color:#FBB040"/><stop offset="0.1005" style="stop-color:#FBB040"/><stop offset="0.4233" style="stop-color:#FBB040"/><stop offset="0.4317" style="stop-color:#FBAF3F"/><stop offset="0.9227" style="stop-color:#F7941E"/></radialGradient><path fill-rule="evenodd" fill="url(#SVGID_2_)" d="M205.421,5.481c-0.148-2.261-6.212-4.284-7.799-4.7   c-4.223-1.105-8.831-0.714-12.719,1.299c-1.23,0.637-2.947,1.754-2.716,3.386c0.125,0.872,1.265,1.776,2.119,1.707   c0.968-0.079,1.492-1.149,2.229-1.649c0.922-0.621,2.019-1.012,3.074-1.332c2.402-0.733,4.956-0.775,7.386-0.151   c1.197,0.308,2.415,0.777,3.49,1.392c0.962,0.549,1.677,1.482,2.653,1.984c0.928,0.479,0.945,0.063,1.706-0.678   C205.276,6.316,205.448,5.895,205.421,5.481z"/><radialGradient id="SVGID_3_" cx="193.7949" cy="16.1772" r="2.9973" gradientUnits="userSpaceOnUse"><stop offset="0.0887" style="stop-color:#FBB040"/><stop offset="0.1005" style="stop-color:#FBB040"/><stop offset="0.4233" style="stop-color:#FBB040"/><stop offset="0.4317" style="stop-color:#FBAF3F"/><stop offset="0.9227" style="stop-color:#F7941E"/></radialGradient><circle fill-rule="evenodd" fill="url(#SVGID_3_)" cx="193.795" cy="16.178" r="2.997"/></g><path fill="#F5F6F7" d="M14.266,36.098l-2.832,3.566c0.449,0.674,1.061,1.293,1.85,1.861c0.783,0.578,1.476,1.01,2.084,1.295  l2.835-3.543c-0.546-0.324-1.196-0.785-1.968-1.373C15.469,37.316,14.811,36.715,14.266,36.098z"/><path fill="#F5F6F7" d="M67.732,5.607c0.787,0.58,1.488,1.008,2.09,1.293l2.839-3.549c-0.544-0.318-1.202-0.775-1.969-1.365  c-0.773-0.596-1.423-1.195-1.966-1.805l-2.842,3.551C66.336,4.404,66.955,5.031,67.732,5.607z"/><path fill="#F5F6F7" d="M47.156,28.666c0.674-1.133,1.168-2.184,1.498-3.191c0.312-1.008,0.471-2.184,0.471-3.494  c0-1.538-0.336-3.064-1.008-4.582c-0.672-1.521-1.475-2.828-2.398-3.914l-3.359,5.859c0.349,0.283,0.723,0.658,1.133,1.123  c0.393,0.467,0.779,0.963,1.145,1.489c0.367,0.531,0.692,1.092,0.957,1.684c0.281,0.596,0.477,1.152,0.604,1.668  c-0.313,0.252-0.739,0.467-1.276,0.672c-0.521,0.182-1.125,0.336-1.797,0.455c-0.672,0.104-1.396,0.193-2.154,0.258  c-0.773,0.066-1.545,0.09-2.307,0.09c-1.344,0-2.395-0.232-3.15-0.719c-0.756-0.471-1.291-1.176-1.604-2.1l1.816-2.602l-1.866-0.246  c-2.146,1.922-4.679,3.393-7.585,4.426c-2.918,1.025-6.375,1.529-10.377,1.529c-2.434,0-4.49-0.133-6.172-0.42  c-1.682-0.295-3.051-0.734-4.102-1.33c-1.06-0.596-1.823-1.33-2.288-2.234c-0.462-0.896-0.692-1.932-0.692-3.124  c0-0.443,0.046-0.957,0.146-1.535c0.094-0.572,0.21-1.07,0.336-1.49l-1.344,0.965c-0.42,0.252-0.818,0.91-1.201,1.971  C0.194,20.925,0,22.189,0,23.668c0,3.426,1.111,5.871,3.337,7.316c2.226,1.461,5.69,2.188,10.399,2.188  c4.318,0,8.019-0.66,11.097-1.986c3.073-1.338,5.613-3.107,7.631-5.309c0,2.326,0.573,4.049,1.706,5.141  c1.135,1.092,2.637,1.637,4.494,1.637c1.92,0,3.611-0.336,5.065-0.996C45.18,31.014,46.328,30.01,47.156,28.666z"/><path fill="#F5F6F7" d="M47.156,36.146l-2.352,3.131c-0.514-0.365-1.051-0.803-1.605-1.346c-0.558-0.545-1.014-1.078-1.37-1.582  l-2.739,3.359c0.414,0.631,0.99,1.248,1.713,1.816c0.717,0.578,1.361,0.998,1.934,1.25l2.068-2.773  c0.451,0.543,0.98,1.047,1.586,1.512c0.608,0.463,1.182,0.814,1.727,1.074l2.738-3.311c-0.545-0.365-1.188-0.816-1.915-1.373  C48.195,37.35,47.607,36.766,47.156,36.146z"/><path fill="#F5F6F7" d="M76.529,16.244c-0.441-1.428-0.994-2.656-1.668-3.695c-0.672-1.043-1.428-1.857-2.27-2.455  c-0.85-0.59-1.713-0.883-2.571-0.883c-0.774,0-1.512,0.23-2.235,0.691c-0.725,0.465-1.365,1.072-1.918,1.828  c-0.566,0.756-1.008,1.584-1.344,2.498c-0.338,0.91-0.506,1.816-0.506,2.709c0,0.932,0.178,1.805,0.523,2.623  c0.356,0.816,0.83,1.541,1.418,2.184c0.588,0.641,1.282,1.146,2.063,1.506c0.793,0.377,1.614,0.557,2.473,0.557  c0.641,0,1.344-0.139,2.098-0.4c0.752-0.283,1.285-0.588,1.598-0.945c0.559,3.576-3.297,3.557-5.73,3.965  c-2.648,0.443-6.871,1.547-9.038-0.773c-1.827-1.957-1.251-5.54-1.266-7.943c-0.03-4.779-0.653-9.725-0.47-14.453  c-1.268,0.906-2.871,1.778-3.782,3.079c-1.064,1.52-0.124,3.368-0.007,5.096c0.144,2.116,0.207,4.241,0.242,6.362  c0.066,3.996-0.994,9.256,1.812,12.594c0.644,0.766,1.462,1.344,2.471,1.711c1.009,0.361,2.286,0.557,3.815,0.557  c2.661,0,4.929-0.221,6.793-0.66c1.883-0.432,3.424-1.15,4.641-2.186c0.984-0.801,1.82-2.018,2.492-3.648  c0.672-1.629,1.008-3.387,1.008-5.278C77.17,19.215,76.961,17.672,76.529,16.244z M72.609,18.742  c-0.573,0.084-1.115,0.121-1.629,0.121c-1.117,0-2.086-0.205-2.911-0.625c-0.81-0.42-1.409-0.979-1.797-1.68  c0.229-0.643,0.62-1.186,1.198-1.637c0.584-0.441,1.217-0.672,1.928-0.672c0.928,0,1.809,0.359,2.658,1.084  c0.849,0.721,1.455,1.75,1.797,3.094C73.602,18.555,73.182,18.658,72.609,18.742z"/><radialGradient id="SVGID_4_" cx="102.5947" cy="3.0381" r="3.0381" gradientUnits="userSpaceOnUse"><stop offset="0.765" style="stop-color:#F7941E"/></radialGradient><rect x="99.557" fill="url(#SVGID_4_)" width="6.076" height="6.076"/><radialGradient id="SVGID_5_" cx="147.1787" cy="39.9102" r="3.0641" gradientUnits="userSpaceOnUse" style="&#10;   background-color: #0e0e0e;&#10;"><stop offset="0.5626" style="stop-color:#F89A24"/></radialGradient><rect x="144.141" y="36.82" fill="url(#SVGID_5_)" width="6.076" height="6.18"/><radialGradient id="SVGID_6_" cx="124.2207" cy="26.4287" r="27.1431" gradientUnits="userSpaceOnUse"><stop offset="0.0887" style="stop-color:#FBB040"/></radialGradient><path fill="url(#SVGID_6_)" d="M152.768,9.857v17.057h-12.563h-0.254h-0.002V9.857h-7.504c-5.723,0-9.602,3.779-9.602,9.24v7.816  h-7.252h-0.309l0,0V9.857h-6.129v24.867c0,0.564-0.102,0.973-0.254,1.279c-0.461,0.561-1.227,0.816-2.35,0.816H98.33  c-1.891,0-2.4-0.355-2.656-2.096V18.078h-6.078v15.883c0,5.822,3.32,9.039,9.295,9.039h7.1c5.973,0,9.293-3.217,9.293-9.039v-0.975  l0,0h0.309h7.252v4.803h7.303c3.879,0,6.791-1.582,8.629-4.803h1.176h0.254h18.641V9.857H152.768z M133.77,27.938  c0,2.5-1.07,3.725-3.318,3.725h-1.529V19.66c0-2.502,1.07-3.726,3.318-3.726h1.529V27.938z"/><radialGradient id="SVGID_7_" cx="155.8066" cy="39.9102" r="3.0646" gradientUnits="userSpaceOnUse"><stop offset="0.765" style="stop-color:#F7941E"/></radialGradient><rect x="152.768" y="36.82" fill="url(#SVGID_7_)" width="6.078" height="6.18"/></svg>