<?xml version="1.0" encoding="utf-8"?>
<!-- Generator: Adobe Illustrator 16.0.0, SVG Export Plug-In . SVG Version: 6.00 Build 0)  -->
<svg version="1.2" baseProfile="tiny" id="Layer_1" xmlns="http://www.w3.org/2000/svg" xmlns:xlink="http://www.w3.org/1999/xlink"
	 x="0px" y="0px" width="201px" height="41.534px" viewBox="0 0 201 41.534" xml:space="preserve">
<g>
	<g>
		<g>
			<path fill="#F1F2F2" d="M7.568,29.353C6.33,29.31,5.276,29.146,4.407,28.86c-0.869-0.283-1.603-0.67-2.201-1.158
				c-0.598-0.5-1.074-1.111-1.429-1.836c-0.355-0.723-0.587-1.486-0.699-2.293s-0.104-1.617,0.021-2.43
				c0.125-0.813,0.361-1.554,0.709-2.221l3.817-2.441c-0.222,0.835-0.261,1.575-0.115,2.222c0.146,0.646,0.442,1.2,0.887,1.659
				c0.445,0.459,1.037,0.82,1.773,1.085c0.737,0.264,1.585,0.424,2.545,0.479h10.765l-1.231-4.609l6.3-4.298l2.378,8.907h3.254
				v7.428h-8.699l-0.625-2.359l-1.273,2.359H7.568z M12.992,32.71l4.422,4.422l-4.422,4.402L8.59,37.132L12.992,32.71z"/>
			<path fill="#F1F2F2" d="M30.536,21.925h7.823c-0.265-0.833-0.578-1.63-0.939-2.389c-0.362-0.757-0.786-1.483-1.273-2.18
				l6.342-4.255c0.918,1.335,1.624,2.652,2.118,3.953c0.493,1.3,0.841,2.61,1.043,3.932c0.202,1.319,0.292,2.668,0.271,4.045
				s-0.087,2.816-0.198,4.32H30.536V21.925z M36.043,32.333l2.92,2.902l2.92-2.902l3.922,3.922l-3.922,3.924l-2.92-2.922
				l-2.92,2.922l-3.922-3.924L36.043,32.333z"/>
			<path fill="#F1F2F2" d="M48.435,9.18l7.448-4.36v17.105h4.067v7.428H48.456L48.435,9.18z"/>
			<path fill="#F1F2F2" d="M63.768,21.925c-0.223-0.695-0.282-1.463-0.177-2.305c0.104-0.841,0.33-1.687,0.678-2.534
				c0.348-0.849,0.803-1.659,1.367-2.431c0.563-0.771,1.195-1.429,1.898-1.972c0.702-0.542,1.45-0.938,2.243-1.188
				c0.792-0.251,1.599-0.271,2.419-0.063c0.96,0.236,1.808,0.66,2.545,1.272c0.736,0.611,1.363,1.362,1.877,2.253
				c0.515,0.89,0.925,1.891,1.23,3.004c0.307,1.112,0.516,2.294,0.627,3.547c0.111,1.252,0.127,2.539,0.053,3.867
				c-0.078,1.33-0.24,2.654-0.491,3.977h-18.67v-7.428H63.768z M70.694,0l4.422,4.423l-4.422,4.402l-4.402-4.402L70.694,0z
				 M73.259,22.028c0.014-0.193,0-0.432-0.042-0.708c-0.042-0.277-0.111-0.559-0.208-0.844c-0.098-0.286-0.216-0.557-0.355-0.815
				c-0.139-0.257-0.292-0.469-0.459-0.635c-0.556-0.557-1.033-0.933-1.428-1.127c-0.397-0.195-0.717-0.257-0.96-0.188
				c-0.244,0.069-0.414,0.236-0.512,0.5c-0.097,0.265-0.122,0.57-0.072,0.918c0.048,0.348,0.17,0.713,0.365,1.095
				c0.195,0.383,0.462,0.724,0.804,1.021c0.339,0.299,0.75,0.528,1.23,0.688C72.102,22.095,72.647,22.126,73.259,22.028z"/>
		</g>
		<g>
			<path fill="#FAA21D" d="M98.086,35.14c-1.989,0-3.636-0.336-4.943-1.01c-1.307-0.676-2.322-1.563-3.045-2.66
				c-0.724-1.1-1.179-2.354-1.368-3.766c-0.186-1.412-0.152-2.861,0.105-4.35c0.257-1.488,0.715-2.945,1.377-4.371
				c0.659-1.425,1.477-2.707,2.45-3.849l2.107-0.291c-0.542,1.558-0.842,3.042-0.897,4.452c-0.056,1.413,0.087,2.67,0.429,3.777
				c0.34,1.105,0.864,2.016,1.573,2.732c0.71,0.717,1.567,1.15,2.577,1.305c1.008,0.152,2.151-0.02,3.432-0.512
				c1.279-0.494,2.65-1.395,4.11-2.701l-2.691-8.679l5.507-4.798c0.834,1.433,1.496,2.913,1.983,4.443
				c0.485,1.529,0.798,3.053,0.938,4.568h3.859v7.428h-4.736c-0.444,1.195-1.039,2.301-1.781,3.314
				c-0.745,1.016-1.646,1.893-2.703,2.629c-1.057,0.736-2.274,1.313-3.651,1.723S99.796,35.14,98.086,35.14z M99.546,3.85
				l4.423,4.422l-4.423,4.402l-4.4-4.402L99.546,3.85z"/>
			<path fill="#FAA21D" d="M115.006,19.433h4.13c1.183-2.42,2.394-4.314,3.64-5.685c1.244-1.37,2.468-2.309,3.671-2.816
				c1.202-0.508,2.358-0.636,3.464-0.386c1.106,0.25,2.108,0.778,3.004,1.586c0.897,0.807,1.661,1.846,2.295,3.118
				c0.632,1.272,1.08,2.667,1.345,4.183h4.173v7.428h-4.526c-0.153,0.557-0.332,1.104-0.533,1.646
				c-0.202,0.541-0.435,1.078-0.698,1.607l-12.101-3.254h-7.862V19.433z M130.713,21.164c0-1.085-0.195-1.954-0.585-2.607
				c-0.389-0.654-0.852-1.064-1.386-1.23c-0.536-0.167-1.09-0.073-1.659,0.281c-0.57,0.354-1.035,0.998-1.396,1.929L130.713,21.164z
				"/>
			<path fill="#FAA21D" d="M140.017,19.433h7.824c-0.264-0.834-0.578-1.631-0.94-2.389c-0.361-0.758-0.784-1.484-1.271-2.18
				l6.341-4.256c0.918,1.335,1.623,2.653,2.118,3.953c0.493,1.301,0.84,2.611,1.043,3.933c0.2,1.32,0.292,2.669,0.271,4.046
				c-0.02,1.377-0.088,2.816-0.199,4.32h-15.187V19.433z M145.525,29.841l2.92,2.902l2.921-2.902l3.922,3.922l-3.922,3.924
				l-2.921-2.922l-2.92,2.922l-3.923-3.924L145.525,29.841z"/>
		</g>
	</g>
	<g>
		<path fill-rule="evenodd" fill="#F1F2F2" d="M201,7.341c-0.906,1.315-1.813,2.629-2.715,3.946
			c-0.095,0.132-0.175,0.273-0.266,0.408c-0.898,1.382-1.762,2.788-2.707,4.134c-0.942,1.341-1.835,2.723-2.768,4.07
			c-0.295,0.43-0.313,0.617,0.242,0.73c1.361,0.275,2.706,0.645,4.016,1.139c1.271,0.479,2.411,1.195,3.409,2.139
			c0.688,0.652,0.522,1.877-0.185,2.568c-1.389,1.354-3.119,1.922-4.853,2.48c-2.92,0.934-5.956,1.105-8.962,1.457
			c-0.559,0.066-0.938,0.279-1.268,0.793c-1.174,1.816-2.4,3.602-3.598,5.402c-0.178,0.266-0.255,0.32-0.484,0.02
			c-0.909-1.186-1.669-2.496-2.508-3.738c-0.471-0.697-0.953-1.379-1.416-2.086c-0.18-0.289-0.455-0.35-0.751-0.371
			c-2.815-0.186-5.609-0.527-8.354-1.244c-1.747-0.457-3.458-1.004-5.034-1.943c-0.674-0.4-1.189-0.988-1.593-1.664
			c-0.249-0.41-0.218-0.908,0.053-1.34c0.763-1.221,1.896-1.904,3.141-2.396c1.648-0.651,3.368-1.034,5.084-1.42
			c0.399-0.09,0.483-0.209,0.223-0.584c-1.286-1.882-2.549-3.778-3.831-5.665c-0.53-0.778-1.013-1.588-1.531-2.375
			c-0.976-1.492-2.064-2.91-2.906-4.509c0.164-0.198,0.371-0.124,0.545-0.126c1.602-0.018,3.208-0.016,4.81-0.042
			c0.555-0.008,0.929,0.212,1.238,0.717c0.87,1.401,1.747,2.799,2.678,4.158c1.08,1.588,2.131,3.205,3.191,4.809
			c1.104,1.672,2.206,3.349,3.312,5.019c1.061,1.607,2.157,3.184,3.176,4.818c0.167,0.271,0.381,0.504,0.579,0.75
			c0.225,0.293,0.287-0.018,0.36-0.133c0.382-0.566,0.788-1.117,1.146-1.686c0.783-1.242,1.643-2.426,2.434-3.662
			c1.195-1.858,2.45-3.667,3.663-5.51c1.018-1.538,2.053-3.063,3.084-4.588c0.963-1.427,1.946-2.842,2.877-4.289
			c0.131-0.194,0.264-0.358,0.507-0.358c1.963,0,3.928,0,5.892,0C200.956,7.226,200.976,7.284,201,7.341z M174.678,27.483
			c-0.279-0.74-0.781-1.125-1.086-1.672c-0.736-1.324-1.697-2.482-2.464-3.795c-0.179-0.309-0.414-0.737-0.906-0.563
			c-0.936,0.32-1.864,0.662-2.704,1.229c-1.149,0.77-1.149,1.836-0.009,2.623c0.05,0.035,0.105,0.049,0.15,0.084
			c1.224,0.834,2.587,1.26,3.986,1.582C172.622,27.192,173.593,27.411,174.678,27.483z M187.551,27.374
			c0.482,0.105,0.847-0.082,1.2-0.174c1.621-0.424,3.313-0.59,4.806-1.459c0.593-0.346,1.194-0.748,1.261-1.564
			c0.058-0.738-0.397-1.193-0.932-1.508c-0.603-0.355-1.253-0.613-1.886-0.916c-0.417-0.205-0.666-0.08-0.956,0.328
			c-0.841,1.188-1.557,2.473-2.45,3.621C188.212,26.196,187.917,26.78,187.551,27.374z"/>
		<path fill-rule="evenodd" fill="#FAA21D" stroke="#000000" stroke-miterlimit="10" d="M181.078,24.739
			c-0.369-0.586-0.833-1.1-1.207-1.703c-1.588-2.559-3.174-5.116-4.82-7.63c-1.277-1.941-2.493-3.925-3.783-5.85
			c-0.926-1.379-1.682-2.886-2.72-4.18c-0.144-0.176-0.229-0.403-0.38-0.675c8.596,0,17.115,0,25.703,0
			c-0.671,1.053-1.328,2.086-1.988,3.117c-0.078,0.121-0.175,0.218-0.245,0.336c-1.041,1.684-2.051,3.388-3.121,5.047
			c-1.353,2.089-2.661,4.212-4.004,6.303c-1.02,1.601-2.02,3.219-3.066,4.795C181.342,24.454,181.292,24.651,181.078,24.739z"/>
	</g>
</g>
<g>
</g>
<g>
</g>
<g>
</g>
<g>
</g>
<g>
</g>
<g>
</g>
</svg>
